# xmcd
# 
# Track frame offsets:
#     150
#     14898
#     32180
#     49522
#     70630
#     85363
#     108035
#     125666
#     141520
#     160049
#     174341
#     189926
# 
# Disc length: 2748
# 
# Revision: 4
# Processed by: cddbd v1.5.2PL0 Copyright (c) Steve Scherf et al.
# Submitted via: fre:ac v1.0.31
# 
DISCID=9d0aba0c
DTITLE=Leon Russell - On A Distant Shore
DYEAR=2017
DGENRE=Rock/Pop
TTITLE0=On The Distant Shore
TTITLE1=Love This Way
TTITLE2=Her Without You
TTITLE3=This Masquerade
TTITLE4=Black And Blue
TTITLE5=Just Leaves And Grass
TTITLE6=On The Waterfront
TTITLE7=Easy To Love
TTITLE8=Hummingbird
TTITLE9=The One I Love Is Wrong
TTITLE10=Where Do We Go From Here
TTITLE11=A Song For You
EXTD=YEAR: 2017
EXTT0=
EXTT1=
EXTT2=
EXTT3=
EXTT4=
EXTT5=
EXTT6=
EXTT7=
EXTT8=
EXTT9=
EXTT10=
EXTT11=
PLAYORDER=
